<svg width="42" height="28" viewBox="0 0 42 28" fill="none" xmlns="http://www.w3.org/2000/svg">
<g clip-path="url(#clip0_87_11627)">
<path d="M11.141 0.000399675H1.11785C0.543841 0.000399675 0.256836 0.298444 0.256836 0.905571V26.6919C0.256836 27.288 0.543841 27.5971 1.11785 27.5971H4.60607C5.18008 27.5971 5.46709 27.288 5.46709 26.6919V18.5785C5.46709 18.2694 5.63267 18.1149 5.96383 18.1149H11.141C12.0479 18.1674 12.9559 18.0328 13.8085 17.7195C14.6612 17.4061 15.4403 16.9207 16.0973 16.2935C16.7273 15.5933 17.2126 14.7754 17.5252 13.8868C17.8377 12.9983 17.9715 12.0568 17.9187 11.1163V6.99892C17.9796 6.0622 17.8549 5.12268 17.5518 4.23426C17.2487 3.34584 16.7732 2.52601 16.1525 1.82178C15.489 1.18747 14.7009 0.698017 13.8381 0.38447C12.9754 0.0709235 12.0569 -0.0598665 11.141 0.000399675ZM12.6533 10.8625C12.71 11.5418 12.5221 12.2191 12.1234 12.7721C11.8697 12.9891 11.5743 13.1519 11.2554 13.2506C10.9365 13.3493 10.6008 13.3818 10.2689 13.3462H5.91968C5.62163 13.3462 5.46709 13.1916 5.46709 12.8715V5.14442C5.45819 5.08243 5.46366 5.01922 5.48308 4.95969C5.50251 4.90015 5.53536 4.84587 5.57911 4.80106C5.62286 4.75624 5.67632 4.72209 5.73538 4.70124C5.79443 4.68039 5.85749 4.67339 5.91968 4.6808H10.2689C10.6008 4.64512 10.9365 4.67763 11.2554 4.77634C11.5743 4.87504 11.8697 5.03786 12.1234 5.25481C12.5261 5.82269 12.7138 6.51515 12.6533 7.20865V10.8625ZM36.7507 9.93521H40.1948C40.8019 9.93521 41.0999 9.61509 41.0999 8.98588V6.99892C41.1593 6.06145 41.0328 5.12149 40.7278 4.23304C40.4228 3.34458 39.9453 2.52514 39.3227 1.82178C38.6578 1.19274 37.8711 0.706597 37.011 0.393339C36.151 0.080081 35.2359 -0.0536484 34.3222 0.000399675H29.8515C28.939 -0.0612203 28.0235 0.0668418 27.1629 0.376516C26.3023 0.686191 25.5151 1.17076 24.851 1.7997C24.2251 2.5054 23.7457 3.32843 23.4406 4.22097C23.1356 5.11351 23.0108 6.05778 23.0738 6.99892V20.5986C23.0108 21.5397 23.1356 22.484 23.4406 23.3765C23.7457 24.2691 24.2251 25.0921 24.851 25.7978C25.5177 26.4229 26.3053 26.905 27.1652 27.2144C28.0252 27.5238 28.9394 27.6541 29.8515 27.5971H34.3222C35.2359 27.6511 36.151 27.5174 37.011 27.2041C37.8711 26.8909 38.6578 26.4047 39.3227 25.7757C40.5781 24.3539 41.2173 22.4917 41.0999 20.5986V18.5785C41.1196 18.4537 41.1101 18.326 41.0721 18.2055C41.0341 18.085 40.9687 17.9749 40.881 17.884C40.7932 17.793 40.6856 17.7237 40.5665 17.6814C40.4475 17.6391 40.3202 17.625 40.1948 17.6402H36.7507C36.1767 17.6402 35.8897 17.9603 35.8897 18.5785V20.3447C35.9575 21.0439 35.7562 21.7426 35.3267 22.2985C35.0703 22.5147 34.7729 22.6769 34.4524 22.7755C34.1319 22.8742 33.7947 22.9072 33.4612 22.8725H30.6794C30.3511 22.9045 30.0197 22.8702 29.7049 22.7716C29.3902 22.673 29.0984 22.5121 28.847 22.2985C28.4264 21.7386 28.2296 21.0419 28.2951 20.3447V7.25281C28.2296 6.55554 28.4264 5.85891 28.847 5.29896C29.0984 5.08539 29.3902 4.92452 29.7049 4.82592C30.0197 4.72731 30.3511 4.69298 30.6794 4.72495H33.4612C33.7947 4.69033 34.1319 4.72332 34.4524 4.82194C34.7729 4.92057 35.0703 5.08281 35.3267 5.29896C35.7562 5.85485 35.9575 6.55361 35.8897 7.25281V9.00796C35.8897 9.63716 36.1767 9.93521 36.7507 9.93521Z" fill="white"/>
</g>
<defs>
<clipPath id="clip0_87_11627">
<rect width="40.8431" height="27.5967" fill="white" transform="translate(0.256836)"/>
</clipPath>
</defs>
</svg>
