<svg width="145" height="32" viewBox="0 0 145 32" fill="none" xmlns="http://www.w3.org/2000/svg">
<g clip-path="url(#clip0_99_27874)">
<path fill-rule="evenodd" clip-rule="evenodd" d="M3.0424 27.1664C-0.145972 26.2416 -0.687367 24.3325 0.770008 23.2325C2.11764 22.2126 4.40905 21.4511 4.40905 21.4511L13.8717 18.0219V21.9291L7.06189 24.4127C5.85765 24.858 5.67328 25.4756 6.65218 25.8007C7.63108 26.1258 9.40012 26.0338 10.6029 25.5944L13.8688 24.386V27.882C13.6625 27.9206 13.4299 27.9577 13.2177 27.9933C9.80995 28.5572 6.31822 28.2734 3.0424 27.1664V27.1664ZM23.0067 27.5732L33.6253 23.7283C34.831 23.283 35.0154 22.6684 34.0365 22.3433C33.0576 22.0182 31.2885 22.1102 30.0858 22.5511L23.0096 25.0837V21.0473L23.4193 20.9063C25.018 20.3815 26.6662 20.0268 28.3372 19.8478C31.2125 19.5257 34.733 19.8924 37.4956 20.9553C40.6108 21.9558 40.9619 23.4299 40.1703 24.4453C39.3787 25.4607 37.4385 26.1837 37.4385 26.1837L23.0096 31.4522L23.0067 27.5732ZM24.249 2.54889C29.8399 4.50696 31.7348 6.94451 31.7348 12.4372C31.7348 17.7888 28.4952 19.8181 24.3806 17.7918V7.81146C24.3806 6.64167 24.1699 5.56392 23.093 5.25812C22.2677 4.98794 21.7556 5.77027 21.7556 6.94006V31.9169L15.1535 29.7792V0C17.9615 0.531453 22.0512 1.78141 24.249 2.54296V2.54889ZM38.4423 29.8861C38.4471 29.9253 38.4424 29.9651 38.4286 30.0021C38.4149 30.0391 38.3924 30.0721 38.3632 30.0983C38.2909 30.1437 38.2067 30.1654 38.1218 30.1607H37.6141V29.6277H38.1525C38.2127 29.6254 38.2727 29.6365 38.3281 29.6604C38.3671 29.6822 38.3988 29.7154 38.4191 29.7556C38.4395 29.7958 38.4475 29.8412 38.4423 29.8861V29.8861ZM38.8066 31.1004C38.7921 31.0914 38.7798 31.0793 38.7704 31.0649C38.761 31.0506 38.7549 31.0343 38.7525 31.0172C38.7418 30.9685 38.7368 30.9187 38.7378 30.8688L38.7276 30.6268C38.7318 30.5385 38.7093 30.451 38.6632 30.3759C38.6324 30.3388 38.5952 30.3077 38.5535 30.2839C38.6084 30.2477 38.6556 30.2008 38.6925 30.1458C38.7427 30.0586 38.7676 29.9588 38.7642 29.8578C38.7714 29.7618 38.7493 29.6658 38.7008 29.5829C38.6524 29.5001 38.58 29.4343 38.4935 29.3947C38.3837 29.3486 38.2654 29.3269 38.1467 29.3308H37.2966V31.2162H37.6141V30.4427H38.1145C38.1807 30.439 38.2469 30.4491 38.3091 30.4724C38.3434 30.4924 38.3714 30.5218 38.3898 30.5573C38.4082 30.5928 38.4163 30.6329 38.413 30.6728L38.4276 30.9697C38.4283 31.0195 38.4327 31.0691 38.4408 31.1182C38.4453 31.1429 38.4531 31.1669 38.4642 31.1894L38.4759 31.2117H38.83V31.1019L38.8066 31.1004ZM36.6279 30.3136C36.6267 29.9409 36.7708 29.5828 37.0288 29.3175C37.1546 29.1865 37.305 29.0824 37.4711 29.0113C37.6372 28.9402 37.8157 28.9036 37.996 28.9036C38.1763 28.9036 38.3547 28.9402 38.5208 29.0113C38.6869 29.0824 38.8373 29.1865 38.9632 29.3175C39.1539 29.5145 39.2836 29.7639 39.3362 30.0348C39.3888 30.3058 39.362 30.5864 39.2591 30.8421C39.1562 31.0978 38.9818 31.3173 38.7573 31.4734C38.5328 31.6296 38.2681 31.7156 37.996 31.7209C37.8158 31.7211 37.6374 31.6846 37.4713 31.6137C37.3052 31.5429 37.1547 31.439 37.0288 31.3082C36.7711 31.0432 36.627 30.6858 36.6279 30.3136V30.3136ZM37.996 32.0059C38.2126 32.0062 38.4271 31.9623 38.6266 31.8769C38.8262 31.7915 39.0068 31.6662 39.1578 31.5086C39.4663 31.189 39.6391 30.7595 39.6391 30.3121C39.6391 29.8648 39.4663 29.4352 39.1578 29.1156C39.0066 28.9584 38.8259 28.8336 38.6263 28.7484C38.4268 28.6633 38.2125 28.6195 37.996 28.6198C37.6688 28.626 37.3507 28.7294 37.0808 28.9172C36.811 29.1049 36.6013 29.3688 36.4777 29.6762C36.3541 29.9835 36.322 30.3209 36.3853 30.6466C36.4487 30.9723 36.6047 31.272 36.8342 31.5086C36.9851 31.6662 37.1657 31.7915 37.3653 31.8769C37.5649 31.9623 37.7794 32.0062 37.996 32.0059V32.0059Z" fill="white"/>
<path d="M142.018 25.5949H141.737V23.6428H141.094V23.3696H142.665V23.6428H142.021L142.018 25.5949ZM143.966 25.0783L144.567 23.3696H145.006V25.5964H144.714V23.7348L144.048 25.5949H143.869L143.206 23.7348V25.5949H142.928V23.3681H143.367L143.966 25.0783ZM138.275 6.375H111.352V13.7797C111.352 13.7797 111.27 16.6389 114.755 16.6389H131.212C131.858 16.6335 132.497 16.7655 133.09 17.0263C134.009 17.442 135.042 18.2882 135.042 19.9953C135.042 21.5273 134.31 22.3973 133.586 22.8842C132.986 23.2772 132.286 23.4836 131.572 23.478H111.352V25.5563H133.899C133.899 25.5563 139.02 25.3455 139.02 20.0057C139.02 17.2906 137.457 15.9456 136.051 15.2865C135.143 14.863 134.154 14.6457 133.154 14.6496H116.843C116.572 14.6533 116.303 14.5885 116.062 14.4611C115.714 14.2696 115.33 13.8896 115.33 13.1414V8.4251H138.275V6.375ZM77.465 23.4706V25.5489H88.8928C90.2587 25.5635 91.5839 25.0769 92.6241 24.1787C93.1606 23.7167 93.5885 23.1389 93.8767 22.4875C94.1648 21.8362 94.3057 21.1277 94.2892 20.414V11.5797C94.2833 11.0966 94.3856 10.6184 94.5884 10.1813C94.7912 9.7441 95.0891 9.35935 95.4598 9.05602C95.9858 8.63821 96.6369 8.41557 97.3049 8.4251H107.268V6.375H95.4027C95.4027 6.375 90.2814 6.45813 90.2814 11.9538V20.2032C90.2905 20.8788 90.1109 21.5432 89.7635 22.1197C89.5121 22.546 89.153 22.8964 88.7234 23.1347C88.2938 23.3729 87.8093 23.4905 87.3199 23.475L77.465 23.4706ZM51.0801 6.375V8.4251H71.4482C72.0148 8.4202 72.5754 8.54237 73.09 8.78287C73.8977 9.16736 74.8049 9.9586 74.8049 11.5633C74.8049 13.1221 73.8977 13.9014 73.09 14.2874C72.5669 14.531 71.9974 14.6546 71.4219 14.6496H56.3155C55.4213 14.6412 54.5375 14.8445 53.7344 15.2434C52.4775 15.8833 51.0801 17.39 51.0801 19.8751V25.5162H55.0001V19.9003C54.9975 19.535 55.0625 19.1725 55.1918 18.8315C55.5151 17.9898 56.3331 16.6389 58.2455 16.6389H73.4777C73.99 16.6417 74.5002 16.5722 74.9936 16.4325C76.3925 16.0287 78.7249 14.8619 78.7249 11.5633C78.7249 6.43735 73.6957 6.375 73.6957 6.375H51.0801Z" fill="white"/>
</g>
<defs>
<clipPath id="clip0_99_27874">
<rect width="145" height="32" fill="white"/>
</clipPath>
</defs>
</svg>
