<svg width="221" height="28" viewBox="0 0 221 28" fill="none" xmlns="http://www.w3.org/2000/svg">
<path d="M14.257 11.2268C14.2742 11.2297 14.2902 11.2379 14.3028 11.2501C18.4847 14.4344 25.6458 22.3128 23.4652 24.5381C20.9164 26.7699 17.6453 28 14.2593 28C10.8732 28 7.60219 26.7699 5.05342 24.5381C2.86887 22.3128 10.0254 14.4344 14.2103 11.2501C14.2233 11.238 14.2395 11.2299 14.257 11.2268ZM21.5416 2.04873C19.3998 0.77469 17.0793 0 14.257 0C11.4346 0 9.1141 0.777801 6.97228 2.04873C6.96038 2.05519 6.95137 2.06592 6.94704 2.07876C6.94272 2.0916 6.94341 2.1056 6.94897 2.11795C6.95565 2.12944 6.9662 2.13818 6.97872 2.14259C6.99125 2.14701 7.00494 2.14682 7.01733 2.14206C9.72471 1.55638 13.8374 3.89756 14.2274 4.13246C14.2361 4.1388 14.2463 4.14258 14.257 4.14335C14.2677 4.14271 14.2779 4.13892 14.2865 4.13246C14.6749 3.89912 18.7923 1.55638 21.4974 2.14206C21.5096 2.14678 21.5232 2.14694 21.5356 2.14251C21.548 2.13809 21.5584 2.12938 21.5649 2.11795C21.571 2.10543 21.5719 2.09105 21.5676 2.07785C21.5632 2.06465 21.5539 2.05365 21.5416 2.04717V2.04873ZM4.46844 4.01579C4.44555 4.02818 4.42483 4.0442 4.40706 4.06323C1.99858 6.45557 0.541278 9.64322 0.306864 13.0319C0.072449 16.4205 1.07692 19.7789 3.133 22.4808C3.14078 22.4936 3.15308 22.503 3.16746 22.5072C3.18184 22.5114 3.19727 22.51 3.21069 22.5033C3.22136 22.495 3.22883 22.4833 3.2318 22.4701C3.23478 22.4569 3.23308 22.4431 3.227 22.431C2.16114 19.1316 7.61086 11.1319 10.4254 7.77801C10.4365 7.76729 10.4434 7.75294 10.4449 7.73757C10.4445 7.72849 10.4422 7.71959 10.4381 7.71152C10.4339 7.70345 10.428 7.69641 10.4208 7.6909C6.1519 3.44332 4.70383 3.89445 4.46844 4.01579ZM18.097 7.6909C18.0897 7.69629 18.0837 7.70331 18.0795 7.71141C18.0753 7.7195 18.0731 7.72845 18.0729 7.73757C18.0744 7.75277 18.081 7.76702 18.0916 7.77801C20.9062 11.1319 26.3567 19.1339 25.2908 22.431C25.2847 22.4431 25.283 22.4569 25.286 22.4701C25.289 22.4833 25.2964 22.495 25.3071 22.5033C25.3206 22.5098 25.3359 22.5111 25.3503 22.5069C25.3646 22.5028 25.3769 22.4935 25.3848 22.4808C27.4399 19.7785 28.4438 16.4203 28.2094 13.032C27.975 9.6436 26.5183 6.45608 24.1107 4.06323C24.0927 4.04419 24.0717 4.02817 24.0486 4.01579C23.8101 3.89445 22.362 3.44332 18.097 7.6909ZM48.9386 22.6247H46.0759L41.1505 15.8376L36.226 22.6247H33.3648L39.7203 13.8659L33.8635 5.79306H36.7247L41.1529 11.8926L45.581 5.79306H48.4422L42.5815 13.8643L48.9386 22.6247ZM63.7915 17.8389C63.7915 19.3167 63.3013 20.4966 62.3349 21.346C61.3685 22.1953 59.967 22.6247 58.1647 22.6247H50.281V15.1267H46.5381L48.0918 12.9799H50.2787V5.79306H57.8306C59.5242 5.79306 60.8402 6.19907 61.7429 7.00099C62.6456 7.8029 63.1048 8.87238 63.1048 10.1775C63.1048 11.7961 62.3714 13.0235 60.9295 13.8262C61.8618 14.1879 62.5788 14.7191 63.0574 15.4067C63.5481 16.1209 63.8042 16.9705 63.79 17.8373L63.7915 17.8389ZM52.8494 12.9815H57.6659C58.6362 12.9815 59.375 12.7637 59.8567 12.3336C60.3383 11.9035 60.5838 11.2509 60.5838 10.3891C60.5838 9.64551 60.3298 9.05749 59.8279 8.63982C59.3261 8.22214 58.5974 8.0098 57.6659 8.0098H52.8494V12.9815ZM61.1983 17.7906C61.1983 16.9071 60.9319 16.235 60.4067 15.794C59.8816 15.353 59.0775 15.1267 58.0217 15.1267H52.8494V20.4041H58.0217C59.0464 20.4041 59.8412 20.1762 60.3834 19.7258C60.9257 19.2755 61.1983 18.6268 61.1983 17.7906ZM81.0566 14.2081C81.0566 15.5094 80.8678 16.7033 80.4965 17.7572C80.1329 18.7981 79.5603 19.7535 78.8138 20.5643C78.0834 21.3575 77.1885 21.9811 76.1919 22.3913C75.2052 22.795 74.085 23.0004 72.8638 23.0004C71.627 23.0004 70.499 22.795 69.5116 22.3913C68.5203 21.9845 67.6326 21.3605 66.9138 20.5651C66.1599 19.7618 65.581 18.8104 65.214 17.7712C64.838 16.7165 64.6476 15.5156 64.6476 14.2096C64.6476 12.9037 64.838 11.7129 65.214 10.6543C65.583 9.60706 66.1614 8.6461 66.9138 7.83012C67.6343 7.04054 68.5222 6.42239 69.5124 6.02096C70.499 5.62117 71.627 5.41816 72.8638 5.41816C74.085 5.41816 75.2052 5.62117 76.1919 6.02096C77.1866 6.42598 78.0813 7.04308 78.8138 7.82935C79.5595 8.64756 80.1319 9.60855 80.4965 10.6543C80.8678 11.7114 81.0566 12.9076 81.0566 14.2081ZM67.31 14.2081C67.31 16.1884 67.8227 17.7766 68.8334 18.9293C69.8286 20.096 71.1842 20.688 72.8638 20.688C74.5434 20.688 75.899 20.096 76.8942 18.9293C77.8893 17.7922 78.3943 16.207 78.3943 14.2081C78.3943 12.2091 77.8893 10.6162 76.8942 9.46351C75.8842 8.31236 74.5278 7.72823 72.8638 7.72823C71.1997 7.72823 69.8441 8.31236 68.8342 9.46351C67.8242 10.6473 67.31 12.2441 67.31 14.2081ZM89.1663 13.8643L95.0231 5.79306H92.1611L87.733 11.8926L83.3049 5.79306H80.4437L86.3005 13.8635L79.9449 22.6223H82.8061L87.7314 15.8353L92.6568 22.6223H95.518L89.1663 13.8643ZM116.9 8.10858V12.9846H125.251V15.1267H116.902V20.3092H126.342V22.6216H114.334V5.79306H126.342V8.10547L116.9 8.10858ZM110.996 14.8296C110.157 14.0603 108.764 13.4637 106.853 13.0562L105.394 12.7497C104.008 12.4534 103.045 12.0901 102.532 11.6701C102.023 11.2812 101.765 10.7033 101.765 9.94574C101.765 9.20372 102.055 8.62348 102.626 8.22136C103.197 7.81923 104.042 7.61312 105.13 7.61312C106.529 7.61312 107.558 7.86901 108.186 8.37381C108.815 8.8786 109.171 9.67662 109.248 10.7484V10.7718H111.795V10.7461C111.764 9.09716 111.187 7.78268 110.08 6.83921C108.973 5.89573 107.301 5.41972 105.108 5.41972C103.291 5.41972 101.828 5.8374 100.762 6.6642C99.6952 7.491 99.1514 8.6087 99.1514 9.99474C99.1514 11.3808 99.5973 12.479 100.477 13.2654C101.358 14.0518 102.674 14.6234 104.397 14.968L105.832 15.2745C107.25 15.5856 108.245 15.9457 108.789 16.3432C109.333 16.7406 109.603 17.3045 109.603 18.0318C109.603 18.9301 109.269 19.6255 108.613 20.0976C107.956 20.5697 106.995 20.8116 105.767 20.8116C104.281 20.8116 103.146 20.4958 102.393 19.8783C101.64 19.2607 101.248 18.3125 101.228 17.0688V17.0447H98.6596V17.0696C98.6752 19.0009 99.3075 20.4919 100.54 21.4953C101.772 22.4987 103.514 23.0097 105.722 23.0097C107.758 23.0097 109.373 22.5555 110.528 21.661C111.682 20.7665 112.261 19.5119 112.261 17.9555C112.261 16.6504 111.835 15.5972 110.995 14.8264L110.996 14.8296ZM141.789 20.5487L141.627 17.9306C141.595 17.0035 141.388 16.2498 141.011 15.6906C140.644 15.1461 140.064 14.7526 139.284 14.5138C140.144 14.2268 140.823 13.736 141.304 13.0562C141.8 12.3561 142.051 11.4827 142.051 10.4606C142.051 9.01394 141.529 7.86201 140.497 7.03832C139.465 6.21463 138.043 5.79384 136.256 5.79384H128.909V22.6231H131.478V15.7178H136.325C137.287 15.7178 137.994 15.941 138.423 16.382C138.852 16.8231 139.099 17.5908 139.145 18.6633L139.216 20.4523C139.231 21.4269 139.399 22.1533 139.715 22.6107L139.722 22.6216H142.368L142.345 22.5842C142.055 22.0888 141.865 21.402 141.787 20.5456L141.789 20.5487ZM131.478 8.01057H136.111C137.167 8.01057 137.989 8.23925 138.555 8.68882C139.12 9.13839 139.405 9.81274 139.405 10.6963C139.405 11.6118 139.127 12.3297 138.577 12.8228C138.028 13.316 137.257 13.5711 136.299 13.5711H131.474L131.478 8.01057ZM144.367 22.6231H146.935V5.79306H144.367V22.6231ZM161.51 8.10547V5.79306H149.502V22.6231H161.51V20.3107H152.071V15.1267H160.421V12.9799H152.071V8.10547H161.51ZM175.194 14.8264C174.356 14.0572 172.961 13.4606 171.052 13.0531L169.594 12.7466C168.208 12.4503 167.245 12.087 166.732 11.667C166.223 11.2781 165.965 10.7002 165.965 9.94263C165.965 9.20061 166.255 8.62037 166.826 8.21825C167.397 7.81612 168.242 7.61 169.33 7.61C170.728 7.61 171.758 7.8659 172.387 8.3707C173.015 8.87549 173.371 9.67351 173.449 10.7453V10.7687H175.991V10.743C175.959 9.09405 175.383 7.77957 174.276 6.83609C173.169 5.89262 171.498 5.41661 169.304 5.41661C167.487 5.41661 166.024 5.83429 164.954 6.66109C163.883 7.48789 163.344 8.60559 163.344 9.99163C163.344 11.3777 163.79 12.4759 164.67 13.2623C165.55 14.0486 166.867 14.6203 168.589 14.9649L170.025 15.2713C171.443 15.5825 172.433 15.9426 172.982 16.34C173.53 16.7375 173.795 17.3014 173.795 18.0287C173.795 18.927 173.462 19.6224 172.805 20.0945C172.147 20.5666 171.188 20.8085 169.96 20.8085C168.474 20.8085 167.339 20.4927 166.585 19.8752C165.831 19.2576 165.441 18.3094 165.42 17.0657V17.0416H162.852V17.0665C162.868 18.9978 163.501 20.4888 164.733 21.4922C165.965 22.4956 167.708 23.0066 169.915 23.0066C171.952 23.0066 173.567 22.5523 174.72 21.6579C175.874 20.7634 176.46 19.5181 176.46 17.9618C176.462 16.6504 176.036 15.5972 175.194 14.8264ZM202.533 3.693H201.249V24.7263H202.533V3.693ZM190.777 13.8643L196.634 5.79306H193.773L189.345 11.8926L184.917 5.79306H182.055L187.912 13.8635L181.558 22.6231H184.419L189.344 15.836L194.269 22.6231H197.131L190.777 13.8643ZM218.996 14.8264C218.157 14.0572 216.764 13.4606 214.854 13.0531L213.394 12.7466C212.008 12.4503 211.045 12.087 210.532 11.667C210.023 11.2781 209.766 10.701 209.766 9.94263C209.766 9.20061 210.055 8.62037 210.626 8.21825C211.197 7.81612 212.042 7.61 213.13 7.61C214.529 7.61 215.559 7.8659 216.186 8.3707C216.814 8.87549 217.171 9.67351 217.248 10.7453V10.7687H219.792V10.743C219.761 9.09405 219.184 7.77957 218.077 6.83609C216.971 5.89262 215.298 5.41661 213.105 5.41661C211.287 5.41661 209.825 5.83429 208.755 6.66109C207.684 7.48789 207.144 8.60559 207.144 9.99163C207.144 11.3777 207.591 12.4759 208.471 13.2623C209.351 14.0486 210.667 14.6203 212.39 14.9649L213.825 15.2713C215.244 15.5825 216.238 15.9426 216.782 16.34C217.326 16.7375 217.604 17.2991 217.604 18.0263C217.604 18.9247 217.271 19.62 216.614 20.0922C215.956 20.5643 214.997 20.8062 213.768 20.8062C212.283 20.8062 211.147 20.4904 210.394 19.8728C209.641 19.2552 209.25 18.3071 209.229 17.0634V17.0393H206.665V17.0642C206.681 18.9955 207.314 20.4865 208.546 21.4899C209.778 22.4932 211.52 23.0042 213.728 23.0042C215.765 23.0042 217.38 22.55 218.533 21.6555C219.687 20.7611 220.273 19.5158 220.273 17.9594C220.264 16.6504 219.838 15.5972 218.996 14.8264Z" fill="white"/>
</svg>
